<?xml version="1.0" encoding="UTF-8"?>
<svg xmlns="http://www.w3.org/2000/svg" xmlns:xlink="http://www.w3.org/1999/xlink" width="3603.7pt" height="3971.21pt" viewBox="0 0 3603.7 3971.21" version="1.1">
<defs>
<clipPath id="clip1">
  <path d="M 0 0 L 3603.699219 0 L 3603.699219 3971.210938 L 0 3971.210938 Z M 0 0 "/>
</clipPath>
</defs>
<g id="surface1">
<g clip-path="url(#clip1)" clip-rule="nonzero">
<path style=" stroke:none;fill-rule:nonzero;fill:rgb(55.299377%,77.999878%,30.198669%);fill-opacity:1;" d="M 1639.25 42.371094 C 1737.71875 -14 1865.980469 -14.25 1964.359375 42.371094 C 2459.308594 322.039063 2954.421875 601.28125 3449.289063 881.121094 C 3542.371094 933.550781 3604.628906 1037.140625 3603.691406 1144.390625 L 3603.691406 2827.03125 C 3604.378906 2938.71875 3535.96875 3044.78125 3437.769531 3096.019531 C 2944.441406 3374.160156 2451.359375 3652.628906 1958.121094 3930.769531 C 1857.621094 3988.230469 1726.789063 3983.800781 1629.421875 3921.628906 C 1481.519531 3835.890625 1333.371094 3750.578125 1185.460938 3664.921875 C 1155.230469 3646.898438 1121.160156 3632.558594 1099.820313 3603.261719 C 1118.679688 3577.828125 1152.421875 3574.660156 1179.828125 3563.558594 C 1241.558594 3543.921875 1298.269531 3512.410156 1354.980469 3481.828125 C 1369.320313 3472.019531 1386.828125 3475.78125 1400.578125 3484.558594 C 1527.050781 3557.078125 1652.410156 3631.699219 1779.300781 3703.519531 C 1806.371094 3719.148438 1833.78125 3698.398438 1856.921875 3685.5 C 2341.03125 3411.890625 2825.730469 3139.320313 3309.75 2865.628906 C 3327.691406 2857 3337.601563 2837.960938 3336.148438 2818.308594 C 3336.480469 2263.25 3336.230469 1708.089844 3336.320313 1153.019531 C 3338.371094 1130.730469 3325.46875 1110.238281 3305.308594 1101.109375 C 2813.699219 824.25 2322.328125 546.96875 1830.800781 270.039063 C 1813.371094 258.050781 1790.359375 258.019531 1772.898438 269.949219 C 1281.359375 546.96875 790.085938 824.511719 298.554688 1101.351563 C 278.472656 1110.488281 264.992188 1130.648438 267.382813 1153.019531 C 267.46875 1708.089844 267.382813 2263.25 267.382813 2818.398438 C 265.636719 2838.03125 276.304688 2856.671875 294.113281 2865.121094 C 425.28125 2939.5 556.617188 3013.351563 687.871094 3087.480469 C 761.8125 3127.28125 852.601563 3150.929688 934.070313 3120.441406 C 1005.960938 3094.648438 1056.351563 3021.289063 1054.980469 2944.960938 C 1055.660156 2393.128906 1054.640625 1841.21875 1055.488281 1289.480469 C 1053.699219 1264.980469 1076.929688 1244.738281 1100.75 1247.050781 C 1163.78125 1246.621094 1226.878906 1246.199219 1289.910156 1247.21875 C 1316.210938 1246.621094 1334.320313 1273 1331.070313 1297.679688 C 1330.808594 1853 1331.738281 2408.339844 1330.640625 2963.648438 C 1330.808594 3111.648438 1270.011719 3272.691406 1133.109375 3345.109375 C 964.464844 3432.46875 756.015625 3413.941406 589.402344 3330.171875 C 445.167969 3258.179688 307.523438 3173.21875 165.847656 3096.101563 C 67.390625 3045.140625 -0.679688 2938.648438 0.0117188 2827.039063 L 0.0117188 1144.390625 C -1.019531 1034.921875 63.714844 929.449219 159.691406 877.789063 C 652.9375 599.429688 1146.101563 320.851563 1639.25 42.371094 "/>
</g>
<path style=" stroke:none;fill-rule:nonzero;fill:rgb(55.299377%,77.999878%,30.198669%);fill-opacity:1;" d="M 2069.558594 1207.941406 C 2284.679688 1194.089844 2514.980469 1199.738281 2708.570313 1305.710938 C 2858.449219 1386.929688 2941.539063 1557.371094 2944.179688 1723.878906 C 2940 1746.339844 2916.519531 1758.730469 2895.078125 1757.191406 C 2832.660156 1757.109375 2770.230469 1758.039063 2707.820313 1756.769531 C 2681.339844 1757.789063 2665.949219 1733.371094 2662.628906 1709.96875 C 2644.691406 1630.300781 2601.238281 1551.390625 2526.25 1512.960938 C 2411.140625 1455.328125 2277.671875 1458.230469 2152.140625 1459.429688 C 2060.511719 1464.289063 1961.96875 1472.230469 1884.328125 1526.109375 C 1824.730469 1566.929688 1806.628906 1649.328125 1827.898438 1715.699219 C 1847.960938 1763.351563 1902.960938 1778.71875 1947.96875 1792.890625 C 2207.21875 1860.699219 2481.941406 1853.949219 2736.238281 1943.179688 C 2841.53125 1979.558594 2944.519531 2050.28125 2980.558594 2160.511719 C 3027.699219 2308.261719 3007.039063 2484.851563 2901.921875 2603.460938 C 2816.679688 2701.058594 2692.53125 2754.191406 2568.699219 2783.039063 C 2403.96875 2819.769531 2233.019531 2820.710938 2065.730469 2804.398438 C 1908.421875 2786.460938 1744.71875 2745.140625 1623.289063 2637.960938 C 1519.441406 2547.789063 1468.71875 2407.300781 1473.761719 2271.710938 C 1474.960938 2248.808594 1497.761719 2232.839844 1519.699219 2234.71875 C 1582.550781 2234.210938 1645.410156 2234.039063 1708.261719 2234.808594 C 1733.371094 2233.011719 1751.980469 2254.710938 1753.269531 2278.371094 C 1764.859375 2354.28125 1793.390625 2433.949219 1859.578125 2478.949219 C 1987.328125 2561.371094 2147.621094 2555.730469 2293.890625 2558.03125 C 2415.070313 2552.660156 2551.109375 2551.03125 2650 2470.941406 C 2702.171875 2425.25 2717.628906 2348.820313 2703.53125 2283.058594 C 2688.261719 2227.550781 2630.179688 2201.679688 2580.308594 2184.769531 C 2324.378906 2103.808594 2046.589844 2133.191406 1793.140625 2041.628906 C 1690.238281 2005.269531 1590.738281 1936.519531 1551.210938 1830.808594 C 1496.050781 1681.199219 1521.320313 1496.140625 1637.460938 1381.539063 C 1750.691406 1267.539063 1914.148438 1223.640625 2069.558594 1207.929688 L 2069.558594 1207.941406 "/>
</g>
</svg>
