<?xml version="1.0" standalone="no"?>
<!DOCTYPE svg PUBLIC "-//W3C//DTD SVG 20010904//EN"
 "http://www.w3.org/TR/2001/REC-SVG-20010904/DTD/svg10.dtd">
<svg version="1.0" xmlns="http://www.w3.org/2000/svg"
 width="860.000000pt" height="542.000000pt" viewBox="0 0 860.000000 542.000000"
 preserveAspectRatio="xMidYMid meet">

<g transform="translate(0.000000,542.000000) scale(0.100000,-0.100000)"
fill="#f4f4f4" stroke="none">
<path d="M504 4989 c-71 -27 -137 -88 -171 -157 -24 -48 -28 -70 -28 -137 0
-67 4 -89 27 -135 27 -54 134 -171 3151 -3460 280 -305 517 -571 527 -590 28
-54 100 -115 166 -140 48 -18 74 -21 139 -18 126 7 216 58 273 158 15 25 839
931 1832 2014 992 1082 1815 1982 1828 2000 79 107 62 288 -36 389 -105 109
-287 128 -405 44 -24 -18 -196 -198 -383 -402 -1076 -1173 -2606 -2842 -2843
-3102 -152 -166 -279 -301 -282 -300 -4 1 -782 848 -1729 1882 -947 1034
-1741 1895 -1764 1912 -79 63 -204 80 -302 42z"/>
</g>
</svg>
