<?xml version="1.0" standalone="no"?>
<!DOCTYPE svg PUBLIC "-//W3C//DTD SVG 20010904//EN"
 "http://www.w3.org/TR/2001/REC-SVG-20010904/DTD/svg10.dtd">
<svg version="1.0" xmlns="http://www.w3.org/2000/svg"
 width="512.000000pt" height="512.000000pt" viewBox="0 0 512.000000 512.000000"
 preserveAspectRatio="xMidYMid meet">

<g transform="translate(0.000000,512.000000) scale(0.100000,-0.100000)"
fill="#0000ff17" stroke="none">
<path d="M2478 4516 c-45 -16 14 28 -768 -576 -359 -278 -852 -658 -1094 -845
-491 -379 -486 -374 -486 -487 0 -121 74 -211 193 -232 95 -17 65 -38 1189
829 574 443 1045 805 1048 805 3 0 474 -361 1046 -803 573 -442 1055 -809
1073 -816 52 -22 160 -11 210 22 97 64 129 185 76 292 -25 52 -46 70 -380 327
l-354 273 -1 443 c0 390 -2 448 -16 478 -26 55 -62 68 -199 72 -144 4 -189 -7
-222 -57 -23 -33 -23 -39 -23 -302 0 -148 -3 -269 -7 -269 -5 0 -252 189 -551
419 -352 271 -556 422 -581 429 -50 15 -107 14 -153 -2z"/>
<path d="M1667 2901 l-887 -686 2 -715 c3 -795 -1 -747 73 -828 20 -23 57 -51
83 -64 l47 -23 557 -3 558 -3 2 604 3 604 28 36 c51 67 48 67 427 67 379 0
376 0 427 -67 l28 -36 3 -604 2 -604 558 3 557 3 47 23 c26 13 63 41 83 64 74
81 70 33 73 828 l2 715 -886 685 c-488 377 -890 686 -893 686 -3 1 -405 -307
-894 -685z"/>
</g>
</svg>
