<?xml version="1.0" standalone="no"?>
<!DOCTYPE svg PUBLIC "-//W3C//DTD SVG 20010904//EN"
 "http://www.w3.org/TR/2001/REC-SVG-20010904/DTD/svg10.dtd">
<svg version="1.0" xmlns="http://www.w3.org/2000/svg"
 width="512.000000pt" height="512.000000pt" viewBox="0 0 512.000000 512.000000"
 preserveAspectRatio="xMidYMid meet">

<g transform="translate(0.000000,512.000000) scale(0.100000,-0.100000)"
fill="#0000ff17" stroke="none">
<path d="M2430 4671 c-72 -23 -125 -57 -182 -118 -112 -121 -118 -156 -118
-713 0 -474 5 -532 50 -620 28 -55 100 -131 158 -169 126 -79 307 -81 438 -5
53 31 136 119 164 173 45 89 50 146 50 621 0 475 -5 532 -50 621 -28 54 -111
142 -164 173 -96 56 -239 72 -346 37z"/>
<path d="M1177 4140 c-84 -30 -124 -58 -200 -140 -295 -319 -487 -750 -537
-1208 -17 -154 -8 -443 18 -592 148 -830 765 -1497 1574 -1704 204 -52 366
-70 593 -63 335 9 639 87 915 234 943 502 1374 1578 1038 2592 -99 296 -291
607 -500 808 -52 49 -76 65 -123 78 -258 75 -499 -158 -416 -403 27 -80 55
-124 131 -208 157 -173 277 -414 332 -667 19 -87 22 -132 22 -307 0 -173 -4
-220 -22 -303 -67 -301 -198 -544 -407 -752 -225 -225 -491 -362 -806 -416
-170 -29 -422 -23 -579 14 -309 73 -547 209 -762 435 -199 210 -329 472 -380
767 -26 154 -21 429 11 565 62 265 186 497 370 692 118 124 146 178 146 278 0
62 -5 85 -28 131 -73 149 -241 222 -390 169z"/>
</g>
</svg>
