<?xml version="1.0" standalone="no"?>
<!DOCTYPE svg PUBLIC "-//W3C//DTD SVG 20010904//EN"
 "http://www.w3.org/TR/2001/REC-SVG-20010904/DTD/svg10.dtd">
<svg version="1.0" xmlns="http://www.w3.org/2000/svg"
 width="512.000000pt" height="512.000000pt" viewBox="0 0 512.000000 512.000000"
 preserveAspectRatio="xMidYMid meet">

<g transform="translate(0.000000,512.000000) scale(0.100000,-0.100000)"
fill="#0000ff17" stroke="none">
<path d="M2351 4974 c-171 -29 -385 -121 -522 -223 -533 -403 -654 -1137 -277
-1688 105 -154 291 -315 463 -401 288 -143 654 -164 957 -56 635 227 969 929
746 1564 -150 426 -517 733 -961 805 -113 18 -293 18 -406 -1z"/>
<path d="M1565 2341 c-472 -187 -811 -592 -899 -1072 -20 -110 -69 -757 -63
-835 9 -120 85 -227 200 -280 l62 -29 1664 -3 c1835 -3 1731 -6 1833 59 87 56
146 154 155 258 8 87 -44 741 -68 855 -100 482 -452 888 -914 1055 l-61 22
-69 -42 c-508 -309 -1182 -309 -1689 -1 -37 23 -71 42 -75 41 -3 0 -37 -13
-76 -28z"/>
</g>
</svg>
